<mxfile host="app.diagrams.net" modified="2023-11-20T11:03:01.984Z" agent="Mozilla/5.0 (X11; Linux x86_64; rv:109.0) Gecko/20100101 Firefox/119.0" etag="x5N1uj_r_w6jveYUkz99" version="22.1.3" type="github">
  <diagram name="Page-1" id="QlAC5k8Q7DcllVizH_dd">
    <mxGraphModel dx="1434" dy="740" grid="1" gridSize="10" guides="1" tooltips="1" connect="1" arrows="1" fold="1" page="1" pageScale="1" pageWidth="850" pageHeight="1100" math="0" shadow="0">
      <root>
        <mxCell id="0" />
        <mxCell id="1" parent="0" />
        <mxCell id="PCc2WrZDBwTdhr_yl73q-1" value="HOME" style="rounded=1;whiteSpace=wrap;html=1;fillColor=#60a917;fontColor=#ffffff;strokeColor=#2D7600;" vertex="1" parent="1">
          <mxGeometry y="340" width="110" height="40" as="geometry" />
        </mxCell>
        <mxCell id="PCc2WrZDBwTdhr_yl73q-2" value="LOGIN" style="rounded=1;whiteSpace=wrap;html=1;fillColor=#60a917;fontColor=#ffffff;strokeColor=#2D7600;" vertex="1" parent="1">
          <mxGeometry x="120" y="290" width="100" height="30" as="geometry" />
        </mxCell>
        <mxCell id="PCc2WrZDBwTdhr_yl73q-3" value="CADASTRO" style="rounded=1;whiteSpace=wrap;html=1;fillColor=#60a917;fontColor=#ffffff;strokeColor=#2D7600;" vertex="1" parent="1">
          <mxGeometry x="120" y="410" width="100" height="30" as="geometry" />
        </mxCell>
        <mxCell id="PCc2WrZDBwTdhr_yl73q-4" style="edgeStyle=orthogonalEdgeStyle;rounded=0;orthogonalLoop=1;jettySize=auto;html=1;entryX=0.636;entryY=1.05;entryDx=0;entryDy=0;entryPerimeter=0;" edge="1" parent="1" source="PCc2WrZDBwTdhr_yl73q-3" target="PCc2WrZDBwTdhr_yl73q-1">
          <mxGeometry relative="1" as="geometry" />
        </mxCell>
        <mxCell id="PCc2WrZDBwTdhr_yl73q-6" style="edgeStyle=orthogonalEdgeStyle;rounded=0;orthogonalLoop=1;jettySize=auto;html=1;entryX=0.627;entryY=-0.075;entryDx=0;entryDy=0;entryPerimeter=0;" edge="1" parent="1" source="PCc2WrZDBwTdhr_yl73q-2" target="PCc2WrZDBwTdhr_yl73q-1">
          <mxGeometry relative="1" as="geometry" />
        </mxCell>
        <mxCell id="PCc2WrZDBwTdhr_yl73q-7" value="CARRINHO" style="rounded=1;whiteSpace=wrap;html=1;fillColor=#60a917;fontColor=#ffffff;strokeColor=#2D7600;" vertex="1" parent="1">
          <mxGeometry x="310" y="40" width="100" height="30" as="geometry" />
        </mxCell>
        <mxCell id="PCc2WrZDBwTdhr_yl73q-9" style="edgeStyle=orthogonalEdgeStyle;rounded=0;orthogonalLoop=1;jettySize=auto;html=1;" edge="1" parent="1" source="PCc2WrZDBwTdhr_yl73q-8" target="PCc2WrZDBwTdhr_yl73q-7">
          <mxGeometry relative="1" as="geometry" />
        </mxCell>
        <mxCell id="PCc2WrZDBwTdhr_yl73q-13" style="edgeStyle=orthogonalEdgeStyle;rounded=0;orthogonalLoop=1;jettySize=auto;html=1;entryX=0;entryY=0.5;entryDx=0;entryDy=0;" edge="1" parent="1" source="PCc2WrZDBwTdhr_yl73q-8" target="PCc2WrZDBwTdhr_yl73q-10">
          <mxGeometry relative="1" as="geometry" />
        </mxCell>
        <mxCell id="PCc2WrZDBwTdhr_yl73q-14" style="edgeStyle=orthogonalEdgeStyle;rounded=0;orthogonalLoop=1;jettySize=auto;html=1;" edge="1" parent="1" source="PCc2WrZDBwTdhr_yl73q-8" target="PCc2WrZDBwTdhr_yl73q-11">
          <mxGeometry relative="1" as="geometry" />
        </mxCell>
        <mxCell id="PCc2WrZDBwTdhr_yl73q-8" value="CLIENTE" style="rounded=1;whiteSpace=wrap;html=1;fillColor=#60a917;fontColor=#ffffff;strokeColor=#2D7600;" vertex="1" parent="1">
          <mxGeometry x="310" y="170" width="100" height="30" as="geometry" />
        </mxCell>
        <mxCell id="PCc2WrZDBwTdhr_yl73q-10" value="COMPRA" style="rounded=1;whiteSpace=wrap;html=1;fillColor=#60a917;fontColor=#ffffff;strokeColor=#2D7600;" vertex="1" parent="1">
          <mxGeometry x="480" y="70" width="100" height="30" as="geometry" />
        </mxCell>
        <mxCell id="PCc2WrZDBwTdhr_yl73q-11" value="VISU" style="rounded=1;whiteSpace=wrap;html=1;fillColor=#60a917;fontColor=#ffffff;strokeColor=#2D7600;" vertex="1" parent="1">
          <mxGeometry x="480" y="170" width="100" height="30" as="geometry" />
        </mxCell>
        <mxCell id="PCc2WrZDBwTdhr_yl73q-15" value="&lt;div&gt;1 LOGIN&lt;/div&gt;&lt;div&gt;2 CADASTRO&lt;/div&gt;&lt;div&gt;3 HOME&lt;/div&gt;&lt;div&gt;4 PRODUTOS&lt;/div&gt;&lt;div&gt;5 HIST DE COMPRA&lt;/div&gt;&lt;div&gt;6 CONCLUIR PEDIDO&lt;br&gt;&lt;/div&gt;&lt;div&gt;7 CARRINHO&lt;/div&gt;&lt;div&gt;8 CONCLUIR COMPRA&lt;/div&gt;&lt;div&gt;9 SUPORTE&lt;br&gt;&lt;/div&gt;&lt;div&gt;&lt;br&gt;&lt;/div&gt;" style="rounded=1;whiteSpace=wrap;html=1;fillColor=#60a917;fontColor=#ffffff;strokeColor=#2D7600;" vertex="1" parent="1">
          <mxGeometry x="650" y="50" width="170" height="210" as="geometry" />
        </mxCell>
        <mxCell id="PCc2WrZDBwTdhr_yl73q-17" style="edgeStyle=orthogonalEdgeStyle;rounded=0;orthogonalLoop=1;jettySize=auto;html=1;entryX=-0.018;entryY=0.643;entryDx=0;entryDy=0;entryPerimeter=0;" edge="1" parent="1" source="PCc2WrZDBwTdhr_yl73q-11" target="PCc2WrZDBwTdhr_yl73q-15">
          <mxGeometry relative="1" as="geometry" />
        </mxCell>
        <mxCell id="PCc2WrZDBwTdhr_yl73q-19" style="edgeStyle=orthogonalEdgeStyle;rounded=0;orthogonalLoop=1;jettySize=auto;html=1;" edge="1" parent="1" source="PCc2WrZDBwTdhr_yl73q-18" target="PCc2WrZDBwTdhr_yl73q-8">
          <mxGeometry relative="1" as="geometry" />
        </mxCell>
        <mxCell id="PCc2WrZDBwTdhr_yl73q-25" style="edgeStyle=orthogonalEdgeStyle;rounded=0;orthogonalLoop=1;jettySize=auto;html=1;entryX=0.5;entryY=0;entryDx=0;entryDy=0;" edge="1" parent="1" source="PCc2WrZDBwTdhr_yl73q-18" target="PCc2WrZDBwTdhr_yl73q-20">
          <mxGeometry relative="1" as="geometry" />
        </mxCell>
        <mxCell id="PCc2WrZDBwTdhr_yl73q-18" value="ADM" style="rounded=1;whiteSpace=wrap;html=1;fillColor=#60a917;fontColor=#ffffff;strokeColor=#2D7600;" vertex="1" parent="1">
          <mxGeometry x="310" y="360" width="100" height="30" as="geometry" />
        </mxCell>
        <mxCell id="PCc2WrZDBwTdhr_yl73q-20" value="VISU" style="rounded=1;whiteSpace=wrap;html=1;fillColor=#60a917;fontColor=#ffffff;strokeColor=#2D7600;" vertex="1" parent="1">
          <mxGeometry x="310" y="490" width="100" height="30" as="geometry" />
        </mxCell>
        <mxCell id="PCc2WrZDBwTdhr_yl73q-24" style="edgeStyle=orthogonalEdgeStyle;rounded=0;orthogonalLoop=1;jettySize=auto;html=1;entryX=1;entryY=0.5;entryDx=0;entryDy=0;" edge="1" parent="1" source="PCc2WrZDBwTdhr_yl73q-21" target="PCc2WrZDBwTdhr_yl73q-18">
          <mxGeometry relative="1" as="geometry" />
        </mxCell>
        <mxCell id="PCc2WrZDBwTdhr_yl73q-21" value="&lt;div&gt;CADASTRO DE&lt;/div&gt;&lt;div&gt;FUNCIONARIO&lt;br&gt;&lt;/div&gt;" style="rounded=1;whiteSpace=wrap;html=1;fillColor=#60a917;fontColor=#ffffff;strokeColor=#2D7600;" vertex="1" parent="1">
          <mxGeometry x="440" y="310" width="100" height="30" as="geometry" />
        </mxCell>
        <mxCell id="PCc2WrZDBwTdhr_yl73q-23" style="edgeStyle=orthogonalEdgeStyle;rounded=0;orthogonalLoop=1;jettySize=auto;html=1;entryX=0.5;entryY=1;entryDx=0;entryDy=0;" edge="1" parent="1" source="PCc2WrZDBwTdhr_yl73q-22" target="PCc2WrZDBwTdhr_yl73q-18">
          <mxGeometry relative="1" as="geometry" />
        </mxCell>
        <mxCell id="PCc2WrZDBwTdhr_yl73q-22" value="&lt;div&gt;CADASTRO DE &lt;br&gt;&lt;/div&gt;&lt;div&gt;PRODUTO&lt;br&gt;&lt;/div&gt;" style="rounded=1;whiteSpace=wrap;html=1;fillColor=#60a917;fontColor=#ffffff;strokeColor=#2D7600;" vertex="1" parent="1">
          <mxGeometry x="437.5" y="410" width="105" height="30" as="geometry" />
        </mxCell>
        <mxCell id="PCc2WrZDBwTdhr_yl73q-26" value="&lt;div&gt;1 INICIO&lt;/div&gt;&lt;div&gt;2 CADASTRO PRODUTO&lt;/div&gt;&lt;div&gt;3 CADASTRO FUNCIONARIO&lt;/div&gt;&lt;div&gt;4 CADASTRO DE CLIENTE&lt;/div&gt;&lt;div&gt;5 ESTOQUE &lt;br&gt;&lt;/div&gt;&lt;div&gt;6 CARRINHO&lt;/div&gt;&lt;div&gt;7 COMPRAS&lt;/div&gt;&lt;div&gt;8 VENDAS&lt;br&gt;&lt;/div&gt;" style="rounded=1;whiteSpace=wrap;html=1;fillColor=#60a917;fontColor=#ffffff;strokeColor=#2D7600;" vertex="1" parent="1">
          <mxGeometry x="670" y="320" width="170" height="210" as="geometry" />
        </mxCell>
        <mxCell id="PCc2WrZDBwTdhr_yl73q-29" style="edgeStyle=orthogonalEdgeStyle;rounded=0;orthogonalLoop=1;jettySize=auto;html=1;entryX=0;entryY=0.881;entryDx=0;entryDy=0;entryPerimeter=0;" edge="1" parent="1" source="PCc2WrZDBwTdhr_yl73q-20" target="PCc2WrZDBwTdhr_yl73q-26">
          <mxGeometry relative="1" as="geometry" />
        </mxCell>
      </root>
    </mxGraphModel>
  </diagram>
</mxfile>
